<svg width="64" height="64" version="1.1" xmlns="http://www.w3.org/2000/svg" desc="Created with imagetracer.js version 1.2.6" ><path fill="rgb(0,0,1)" stroke="rgb(0,0,1)" stroke-width="1" opacity="0.011764705882352941" d="M 0 0 L 29 0.5 L 26 2.5 L 27 6.5 L 18 13.5 L 14.5 18 L 11 20.5 L 5 29.5 L 3 35.5 L 2 46.5 L 6 57.5 L 9.5 61 L 15 63.5 L 0 64 L 0 0 Z " /><path fill="rgb(0,0,1)" stroke="rgb(0,0,1)" stroke-width="1" opacity="0.011764705882352941" d="M 33.5 0 L 64 0 L 64 64 L 49 63.5 L 57 60.5 L 56 56.5 Q 57.3 53.7 58.5 56 Q 60.8 56.8 60 54.5 L 61 52 Q 57.7 53.1 59 49 Q 63.9 50.6 62 45 L 59 44.5 L 63 41.5 Q 62.8 36.8 59.5 35 Q 55.5 35.5 55 32.5 L 52 28.5 Q 56.9 26.9 56 19.5 L 52 14.5 Q 52.7 9.2 49 8.5 L 49 4.5 L 46.5 2 L 43 3.5 Q 43.8 5.8 41.5 5 L 36.5 4 L 33.5 0 Z " /><path fill="rgb(0,0,1)" stroke="rgb(0,0,1)" stroke-width="1" opacity="0.011764705882352941" d="M 38.5 11 L 42 13.5 Q 42.9 16.5 38.5 15 L 37 12.5 L 38.5 11 Z " /><path fill="rgb(0,0,1)" stroke="rgb(0,0,1)" stroke-width="1" opacity="0.011764705882352941" d="M 44 61 L 47 62.5 Q 47.9 65.5 43.5 64 L 44 62.5 L 44 61 Z " /><path fill="rgb(0,0,1)" stroke="rgb(0,0,1)" stroke-width="1" opacity="0.011764705882352941" d="M 38.5 62 L 41 63.5 L 37.5 64 L 38.5 62 Z " /><path fill="rgb(222,197,171)" stroke="rgb(222,197,171)" stroke-width="1" opacity="0.9647058823529412" d="M 30.5 14 L 35 14.5 L 30.5 15 L 30.5 14 Z " /><path fill="rgb(222,197,171)" stroke="rgb(222,197,171)" stroke-width="1" opacity="0.9647058823529412" d="M 49.5 24 L 50 26.5 L 49 26.5 L 49.5 24 Z " /><path fill="rgb(222,197,171)" stroke="rgb(222,197,171)" stroke-width="1" opacity="0.9647058823529412" d="M 45.5 25 L 46.5 27 Q 43.7 27.7 45.5 25 Z " /><path fill="rgb(222,197,171)" stroke="rgb(222,197,171)" stroke-width="1" opacity="0.9647058823529412" d="M 28.5 26 L 29.5 28 L 28.5 26 Z " /><path fill="rgb(222,197,171)" stroke="rgb(222,197,171)" stroke-width="1" opacity="0.9647058823529412" d="M 41.5 30 L 47 31.5 Q 44.8 32.8 47.5 34 L 48.5 31 L 50.5 30 Q 48.9 31.8 52 33.5 L 51 34.5 L 52.5 38 L 55.5 36 L 54.5 38 L 53 38.5 L 53.5 40 L 50.5 37 L 45.5 36 L 42 32.5 L 41.5 30 Z " /><path fill="rgb(222,197,171)" stroke="rgb(222,197,171)" stroke-width="1" opacity="0.9647058823529412" d="M 37.5 33 L 40 34.5 L 37.5 35 L 35.5 36 L 37.5 33 Z " /><path fill="rgb(222,197,171)" stroke="rgb(222,197,171)" stroke-width="1" opacity="0.9647058823529412" d="M 46 41 L 49 42.5 L 46 43 L 46 41 Z " /><path fill="rgb(222,197,171)" stroke="rgb(222,197,171)" stroke-width="1" opacity="0.9647058823529412" d="M 22.5 44 L 24.5 45 L 26.5 44 L 26.5 45 L 23.5 46 L 22.5 44 Z " /><path fill="rgb(222,197,171)" stroke="rgb(222,197,171)" stroke-width="1" opacity="0.9647058823529412" d="M 44.5 44 L 48 45.5 L 46.5 45 L 43.5 46 L 44.5 44 Z " /><path fill="rgb(222,197,171)" stroke="rgb(222,197,171)" stroke-width="1" opacity="0.9647058823529412" d="M 59 45 Q 62 44 61 47 Q 58 48 59 45 Z " /><path fill="rgb(222,197,171)" stroke="rgb(222,197,171)" stroke-width="1" opacity="0.9647058823529412" d="M 54.5 46 L 55 48.5 L 54 48.5 L 54.5 46 Z " /><path fill="rgb(222,197,171)" stroke="rgb(222,197,171)" stroke-width="1" opacity="0.9647058823529412" d="M 37 51 L 40 52.5 L 37 52.5 L 37 51 Z " /><path fill="rgb(222,197,171)" stroke="rgb(222,197,171)" stroke-width="1" opacity="0.9647058823529412" d="M 44.5 54 Q 48.3 53.3 49 55.5 L 49.5 57 L 52.5 55 L 51.5 57 L 45.5 59 L 43 58 L 43.5 56 L 46.5 57 L 47.5 55 Q 43.5 55.8 44.5 54 Z " /><path fill="rgb(222,197,171)" stroke="rgb(222,197,171)" stroke-width="1" opacity="0.9647058823529412" d="M 30.5 61 Q 33.8 59.9 33 62.5 L 33.5 64 L 30.5 62 L 30.5 64 L 26 63.5 L 30.5 61 Z " /><path fill="rgb(232,182,135)" stroke="rgb(232,182,135)" stroke-width="1" opacity="0.9098039215686274" d="M 30.5 0 L 34 2.5 L 31.5 1 L 30.5 0 Z " /><path fill="rgb(232,182,135)" stroke="rgb(232,182,135)" stroke-width="1" opacity="0.9098039215686274" d="M 36.5 4 Q 42 3 43 6.5 L 41.5 6 L 36.5 5 L 36.5 4 Z " /><path fill="rgb(232,182,135)" stroke="rgb(232,182,135)" stroke-width="1" opacity="0.9098039215686274" d="M 26.5 7 L 29 8.5 L 27.5 8 L 26.5 7 Z " /><path fill="rgb(232,182,135)" stroke="rgb(232,182,135)" stroke-width="1" opacity="0.9098039215686274" d="M 22.5 10 L 20 13.5 L 18.5 16 L 18 13 L 22.5 10 Z " /><path fill="rgb(232,182,135)" stroke="rgb(232,182,135)" stroke-width="1" opacity="0.9098039215686274" d="M 15.5 17 L 15 18.5 L 13.5 21 L 12 20.5 L 15.5 17 Z " /><path fill="rgb(232,182,135)" stroke="rgb(232,182,135)" stroke-width="1" opacity="0.9098039215686274" d="M 51.5 28 L 52 30.5 Q 50.8 33.3 49.5 31 L 47.5 32 L 45 30.5 L 51.5 28 Z " /><path fill="rgb(232,182,135)" stroke="rgb(232,182,135)" stroke-width="1" opacity="0.9098039215686274" d="M 56.5 34 L 60 35 L 62 38.5 L 62 42.5 L 59 44 L 60 41.5 L 58 40.5 L 60 40 Q 61.5 36.3 58.5 37 L 56.5 34 Z " /><path fill="rgb(232,182,135)" stroke="rgb(232,182,135)" stroke-width="1" opacity="0.9098039215686274" d="M 41.5 39 L 41.5 42 Q 38.5 40.5 41.5 39 Z " /><path fill="rgb(232,182,135)" stroke="rgb(232,182,135)" stroke-width="1" opacity="0.9098039215686274" d="M 47.5 39 L 51 40 L 49.5 43 L 48.5 40 L 47.5 39 Z " /><path fill="rgb(232,182,135)" stroke="rgb(232,182,135)" stroke-width="1" opacity="0.9098039215686274" d="M 21.5 44 L 22.5 46 L 21.5 44 Z " /><path fill="rgb(232,182,135)" stroke="rgb(232,182,135)" stroke-width="1" opacity="0.9098039215686274" d="M 30.5 44 L 32 44.5 L 29.5 46 L 30.5 44 Z " /><path fill="rgb(232,182,135)" stroke="rgb(232,182,135)" stroke-width="1" opacity="0.9098039215686274" d="M 37.5 50 Q 40.8 48.9 40 51.5 L 38.5 51 L 37.5 50 Z " /><path fill="rgb(232,182,135)" stroke="rgb(232,182,135)" stroke-width="1" opacity="0.9098039215686274" d="M 47.5 53 L 50 54.5 L 49.5 56 L 47.5 53 Z " /><path fill="rgb(232,182,135)" stroke="rgb(232,182,135)" stroke-width="1" opacity="0.9098039215686274" d="M 39.5 60 L 40 62 Q 36.6 61.3 35.5 64 L 33.5 61 Q 38.3 62.3 39.5 60 Z " /><path fill="rgb(232,182,135)" stroke="rgb(232,182,135)" stroke-width="1" opacity="0.9098039215686274" d="M 56.5 60 L 55.5 62 L 56.5 60 Z " /><path fill="rgb(232,182,135)" stroke="rgb(232,182,135)" stroke-width="1" opacity="0.9098039215686274" d="M 28.5 61 L 32 63.5 L 29.5 62 L 28.5 61 Z " /><path fill="rgb(232,182,135)" stroke="rgb(232,182,135)" stroke-width="1" opacity="0.9098039215686274" d="M 26.5 62 L 25.5 64 L 26.5 62 Z " /><path fill="rgb(220,170,119)" stroke="rgb(220,170,119)" stroke-width="1" opacity="0.9647058823529412" d="M 30.5 1 L 32 6 L 34 6.5 L 29.5 9 L 29 6 L 27 5.5 L 30.5 1 Z " /><path fill="rgb(220,170,119)" stroke="rgb(220,170,119)" stroke-width="1" opacity="0.9647058823529412" d="M 34.5 2 L 35.5 4 L 34.5 2 Z " /><path fill="rgb(220,170,119)" stroke="rgb(220,170,119)" stroke-width="1" opacity="0.9647058823529412" d="M 21.5 10 L 19.5 13 L 21.5 10 Z " /><path fill="rgb(220,170,119)" stroke="rgb(220,170,119)" stroke-width="1" opacity="0.9647058823529412" d="M 17.5 15 L 16.5 17 L 17.5 15 Z " /><path fill="rgb(220,170,119)" stroke="rgb(220,170,119)" stroke-width="1" opacity="0.9647058823529412" d="M 50.5 20 L 52 20.5 L 47.5 26 L 46 25.5 L 49 23.5 L 50.5 20 Z " /><path fill="rgb(220,170,119)" stroke="rgb(220,170,119)" stroke-width="1" opacity="0.9647058823529412" d="M 11.5 21 L 10.5 23 L 11.5 21 Z " /><path fill="rgb(220,170,119)" stroke="rgb(220,170,119)" stroke-width="1" opacity="0.9647058823529412" d="M 52.5 30 L 55 31.5 L 53.5 32 L 52.5 30 Z " /><path fill="rgb(220,170,119)" stroke="rgb(220,170,119)" stroke-width="1" opacity="0.9647058823529412" d="M 51.5 32 L 54 36.5 L 52 37 L 51.5 32 Z " /><path fill="rgb(220,170,119)" stroke="rgb(220,170,119)" stroke-width="1" opacity="0.9647058823529412" d="M 60.5 36 L 61.5 38 L 60.5 36 Z " /><path fill="rgb(220,170,119)" stroke="rgb(220,170,119)" stroke-width="1" opacity="0.9647058823529412" d="M 5.5 38 L 6 40.5 L 5 40.5 L 5.5 38 Z " /><path fill="rgb(220,170,119)" stroke="rgb(220,170,119)" stroke-width="1" opacity="0.9647058823529412" d="M 49.5 39 L 48.5 41 L 49.5 39 Z " /><path fill="rgb(220,170,119)" stroke="rgb(220,170,119)" stroke-width="1" opacity="0.9647058823529412" d="M 56.5 39 L 59 39.5 L 56.5 40 L 56.5 39 Z " /><path fill="rgb(220,170,119)" stroke="rgb(220,170,119)" stroke-width="1" opacity="0.9647058823529412" d="M 25 41 L 27 41.5 L 25.5 44 L 25 41 Z " /><path fill="rgb(220,170,119)" stroke="rgb(220,170,119)" stroke-width="1" opacity="0.9647058823529412" d="M 42.5 41 L 41.5 43 L 42.5 41 Z " /><path fill="rgb(220,170,119)" stroke="rgb(220,170,119)" stroke-width="1" opacity="0.9647058823529412" d="M 51.5 41 L 50.5 43 L 51.5 41 Z " /><path fill="rgb(220,170,119)" stroke="rgb(220,170,119)" stroke-width="1" opacity="0.9647058823529412" d="M 59.5 41 L 58.5 43 L 59.5 41 Z " /><path fill="rgb(220,170,119)" stroke="rgb(220,170,119)" stroke-width="1" opacity="0.9647058823529412" d="M 35.5 44 L 38 44.5 Q 38.8 46.8 36.5 46 L 35.5 44 Z " /><path fill="rgb(220,170,119)" stroke="rgb(220,170,119)" stroke-width="1" opacity="0.9647058823529412" d="M 30.5 45 L 32 45.5 L 30 46 L 29.5 48 L 29 46.5 L 30.5 45 Z " /><path fill="rgb(220,170,119)" stroke="rgb(220,170,119)" stroke-width="1" opacity="0.9647058823529412" d="M 51.5 46 L 53 48.5 L 51 47.5 L 51.5 46 Z " /><path fill="rgb(220,170,119)" stroke="rgb(220,170,119)" stroke-width="1" opacity="0.9647058823529412" d="M 50.5 49 L 54 51.5 L 52.5 52 L 50.5 49 Z " /><path fill="rgb(220,170,119)" stroke="rgb(220,170,119)" stroke-width="1" opacity="0.9647058823529412" d="M 34.5 56 L 35 58 L 33 57.5 L 34.5 56 Z " /><path fill="rgb(220,170,119)" stroke="rgb(220,170,119)" stroke-width="1" opacity="0.9647058823529412" d="M 11.5 57 L 12.5 59 L 11.5 57 Z " /><path fill="rgb(212,145,98)" stroke="rgb(212,145,98)" stroke-width="1" opacity="0.8470588235294118" d="M 29.5 0 L 27 3.5 L 28 6.5 L 26 5.5 L 27 1 L 29.5 0 Z " /><path fill="rgb(212,145,98)" stroke="rgb(212,145,98)" stroke-width="1" opacity="0.8470588235294118" d="M 31.5 2 Q 33.8 1.3 33 3.5 L 34 6 Q 31 7.3 32 3.5 L 31.5 2 Z " /><path fill="rgb(212,145,98)" stroke="rgb(212,145,98)" stroke-width="1" opacity="0.8470588235294118" d="M 44 2 Q 47.8 1.3 49 4.5 L 48.5 8 L 43 4.5 L 44 2 Z " /><path fill="rgb(212,145,98)" stroke="rgb(212,145,98)" stroke-width="1" opacity="0.8470588235294118" d="M 9.5 23 L 9 24.5 L 5 34.5 L 6 37.5 L 4 37.5 L 6 41.5 L 7 50.5 L 12.5 59 L 17 61.5 L 16.5 63 L 23 63.5 L 15.5 64 L 6 57.5 L 3 51.5 L 2 42.5 L 4 32.5 L 9.5 23 Z M 5 48 L 4 51 L 5 51 L 5 48 Z " /><path fill="rgb(212,145,98)" stroke="rgb(212,145,98)" stroke-width="1" opacity="0.8470588235294118" d="M 52.5 29 L 53.5 31 L 52.5 29 Z " /><path fill="rgb(212,145,98)" stroke="rgb(212,145,98)" stroke-width="1" opacity="0.8470588235294118" d="M 54.5 32 L 55.5 34 L 54.5 32 Z " /><path fill="rgb(212,145,98)" stroke="rgb(212,145,98)" stroke-width="1" opacity="0.8470588235294118" d="M 20.5 38 L 25 41.5 L 24.5 43 L 20 39.5 L 20.5 38 Z " /><path fill="rgb(212,145,98)" stroke="rgb(212,145,98)" stroke-width="1" opacity="0.8470588235294118" d="M 29 49 Q 31.7 47.9 31 50.5 Q 33.3 51.7 30.5 53 L 29 49 Z " /><path fill="rgb(212,145,98)" stroke="rgb(212,145,98)" stroke-width="1" opacity="0.8470588235294118" d="M 30.5 54 L 31 56 L 33.5 55 L 34 56.5 L 32.5 60 L 32 57 Q 28.5 58.1 30.5 54 Z " /><path fill="rgb(212,145,98)" stroke="rgb(212,145,98)" stroke-width="1" opacity="0.8470588235294118" d="M 50.5 60 L 55 61.5 L 50 62 L 50.5 60 Z " /><path fill="rgb(248,225,198)" stroke="rgb(248,225,198)" stroke-width="1" opacity="0.9647058823529412" d="M 42.5 5 L 52 11.5 L 50.5 14 L 44.5 7 L 42.5 5 Z " /><path fill="rgb(248,225,198)" stroke="rgb(248,225,198)" stroke-width="1" opacity="0.9647058823529412" d="M 29.5 15 L 42.5 16 L 48 19.5 L 49 23.5 L 45 25 Q 43.9 27.7 46.5 27 L 48.5 26 L 50 26.5 L 51 21 Q 54.3 22.3 53 17.5 L 52.5 16 Q 54.8 15.3 54 17.5 Q 57 18.5 56 23.5 L 52.5 28 Q 48.3 30.8 41 30.5 L 42 33.5 Q 40.3 36.8 38.5 33 L 35.5 35 L 28.5 26 L 26 24.5 L 25 19.5 L 27.5 16 L 29.5 15 Z " /><path fill="rgb(248,225,198)" stroke="rgb(248,225,198)" stroke-width="1" opacity="0.9647058823529412" d="M 46.5 32 L 49 32.5 Q 46.9 35.8 46.5 32 Z " /><path fill="rgb(248,225,198)" stroke="rgb(248,225,198)" stroke-width="1" opacity="0.9647058823529412" d="M 24.5 44 L 29 46.5 L 28.5 48 L 24.5 44 Z " /><path fill="rgb(248,225,198)" stroke="rgb(248,225,198)" stroke-width="1" opacity="0.9647058823529412" d="M 39.5 44 L 38.5 46 L 39.5 44 Z " /><path fill="rgb(248,225,198)" stroke="rgb(248,225,198)" stroke-width="1" opacity="0.9647058823529412" d="M 38.5 52 L 39.5 54 Q 36.7 54.7 38.5 52 Z " /><path fill="rgb(248,225,198)" stroke="rgb(248,225,198)" stroke-width="1" opacity="0.9647058823529412" d="M 44 55 L 48 55.5 L 44 57 L 44 55 Z " /><path fill="rgb(228,173,116)" stroke="rgb(228,173,116)" stroke-width="1" opacity="0.996078431372549" d="M 29.5 1 L 28 3.5 L 27.5 5 L 27 3.5 L 29.5 1 Z " /><path fill="rgb(228,173,116)" stroke="rgb(228,173,116)" stroke-width="1" opacity="0.996078431372549" d="M 33.5 3 L 45.5 8 L 49 11.5 L 53 18.5 Q 51.7 21.3 50.5 19 L 43 15.5 L 40.5 10 L 37.5 11 Q 34.5 10.2 36 14 L 29.5 14 L 25 17.5 L 24 20.5 L 29.5 28 L 33 30.5 L 36 38 L 40 40.5 L 38.5 44 L 37.5 42 L 37 44 L 33 45 L 31.5 42 L 29 42.5 L 30 45 L 26 44 L 27 41.5 L 20.5 38 L 20 39.5 L 25 43.5 L 21 44.5 L 29 48 L 30 56.5 L 32 58.5 L 31.5 60 L 35 60.5 Q 28.3 59.8 25.5 63 L 16.5 63 L 15.5 60 L 9 54.5 L 6 46.5 L 6 35.5 L 5 33.5 L 8 26 Q 11 27.3 10 23.5 L 15 19.5 L 17.5 16 L 20 14.5 L 23 9 L 28 8 L 28.5 6 L 29 7.5 L 28.5 9 L 34 7 L 33.5 3 Z " /><path fill="rgb(228,173,116)" stroke="rgb(228,173,116)" stroke-width="1" opacity="0.996078431372549" d="M 45.5 3 L 47 3.5 L 44.5 5 L 45.5 3 Z " /><path fill="rgb(228,173,116)" stroke="rgb(228,173,116)" stroke-width="1" opacity="0.996078431372549" d="M 51.5 31 L 56 34.5 Q 56.7 37.5 53 36 L 51.5 31 Z " /><path fill="rgb(228,173,116)" stroke="rgb(228,173,116)" stroke-width="1" opacity="0.996078431372549" d="M 57.5 36 L 60 37 L 59.5 40 Q 57.8 36.9 56 38.5 L 57.5 36 Z " /><path fill="rgb(228,173,116)" stroke="rgb(228,173,116)" stroke-width="1" opacity="0.996078431372549" d="M 46.5 39 L 47.5 41 L 46.5 39 Z " /><path fill="rgb(228,173,116)" stroke="rgb(228,173,116)" stroke-width="1" opacity="0.996078431372549" d="M 57.5 40 L 58.5 42 Q 55.7 42.7 57.5 40 Z " /><path fill="rgb(228,173,116)" stroke="rgb(228,173,116)" stroke-width="1" opacity="0.996078431372549" d="M 52.5 46 Q 55.5 45.1 54 49.5 L 52 50.5 L 53 47.5 L 52.5 46 Z " /><path fill="rgb(228,173,116)" stroke="rgb(228,173,116)" stroke-width="1" opacity="0.996078431372549" d="M 5.5 52 L 11.5 60 L 15 61.5 L 13.5 62 L 6 55.5 L 5.5 52 Z " /><path fill="rgb(228,173,116)" stroke="rgb(228,173,116)" stroke-width="1" opacity="0.996078431372549" d="M 31.5 62 L 35 63.5 L 32.5 64 L 31.5 62 Z " /><path fill="rgb(134,131,124)" stroke="rgb(134,131,124)" stroke-width="1" opacity="0.9647058823529412" d="M 37.5 11 L 37 12.5 L 38.5 15 Q 42.9 16.5 42 13.5 L 39 11.5 L 40.5 11 Q 43.8 12.2 43 16 Q 37.5 17.3 36 13.5 L 37.5 11 Z " /><path fill="rgb(134,131,124)" stroke="rgb(134,131,124)" stroke-width="1" opacity="0.9647058823529412" d="M 51.5 12 L 53 15.5 L 51 14.5 L 51.5 12 Z " /><path fill="rgb(134,131,124)" stroke="rgb(134,131,124)" stroke-width="1" opacity="0.9647058823529412" d="M 44.5 33 L 45.5 36 L 51.5 38 L 53.5 38 L 56.5 36 L 56 37.5 L 59 43.5 L 59 47 Q 61.7 48.1 61 45.5 L 62 45.5 L 62 49 Q 57.5 47.5 59 52 Q 61.7 50.9 61 53.5 L 60 56 L 57.5 55 L 56 58.5 L 56.5 60 L 53.5 61 L 50 60 L 48.5 64 Q 46.3 64.8 47 62.5 L 44 61 L 42.5 64 L 40 62.5 L 38.5 59 L 35.5 61 L 34 58.5 L 35 56.5 Q 33.8 53.7 32.5 56 Q 30.3 56.8 31 54.5 Q 28.5 53 32 51.5 L 30.5 49 L 29 48.5 L 30 46 Q 32.7 47.1 32 44.5 L 31 42.5 L 32 42.5 L 33.5 45 L 40 46 L 43 41.5 L 42 39 L 39.5 40 L 39 38 Q 36.3 39.1 37 36.5 L 36.5 35 L 38.5 34 L 41.5 35 L 44.5 33 Z M 46 38 L 46 43 Q 51 44 52 42 L 46 38 Z M 45 44 L 45 45 L 47 45 L 45 44 Z M 54 45 L 51 46 L 50 50 L 54 52 L 55 49 L 54 45 Z M 37 50 L 38 54 Q 37 56 40 55 L 41 52 Q 40 49 37 50 Z M 46 53 Q 42 54 43 58 L 46 59 L 52 57 L 52 56 Q 49 57 50 55 Q 49 52 46 53 Z " /></svg>